<svg id="Layer_1" data-name="Layer 1" xmlns="http://www.w3.org/2000/svg" viewBox="0 0 400 400"><defs><style>.cls-1{fill:#bcd24e;}.cls-2{fill:#1d1d1b;}.cls-3{fill:#b1322a;}.cls-3,.cls-4,.cls-5,.cls-6,.cls-7,.cls-8{stroke:#1d1d1b;stroke-miterlimit:10;}.cls-3,.cls-5,.cls-6{stroke-width:12.5px;}.cls-4{fill:#e96a6a;}.cls-4,.cls-7{stroke-width:10px;}.cls-5,.cls-7{fill:none;}.cls-6{fill:#f0ebcc;}.cls-8{fill:#fff;stroke-width:20px;}</style></defs><circle class="cls-1" cx="200" cy="200" r="187.5"/><path class="cls-2" d="M200,25A175,175,0,0,1,323.74,323.74,175,175,0,1,1,76.26,76.26,173.82,173.82,0,0,1,200,25m0-25C89.54,0,0,89.54,0,200S89.54,400,200,400s200-89.54,200-200S310.46,0,200,0Z"/><g id="Layer_3" data-name="Layer 3"><path class="cls-3" d="M349.17,185.32c-.19-10.62-12.59-16-21.83-10-49.42,31.83-149.39,75.44-210.15,58a1.76,1.76,0,0,1-.2-.09c-9.36-4.22-20,2.53-19.47,12.39,3,53.79,83,102.07,122.6,101.47C306.17,345.77,349.44,200.08,349.17,185.32Z"/><path class="cls-4" d="M243.34,296.55c21.53-3.26,38,.45,47.16,12.45-20.39,18.79-42.32,36.19-72.2,37.69a90.58,90.58,0,0,1-16.52-.87,24.85,24.85,0,0,1-2.61-7.56C196,319.41,215.79,300.73,243.34,296.55Z"/><path class="cls-5" d="M349.17,185.32c-.19-10.62-12.59-16-21.83-10-49.42,31.83-149.39,75.44-210.15,58a1.76,1.76,0,0,1-.2-.09c-9.36-4.22-20,2.53-19.47,12.39,3,53.79,83,102.07,122.6,101.47C306.17,345.77,349.44,200.08,349.17,185.32Z"/><path class="cls-6" d="M140.28,236.5a4.51,4.51,0,0,0,1.39,1.92l34.07,27.87a4.83,4.83,0,0,0,7.65-2.18l8.55-28.42a4.25,4.25,0,0,0-.16-2.93C176.21,236.29,158.62,237.3,140.28,236.5Z"/><path class="cls-6" d="M287.73,199.25a4.26,4.26,0,0,1-.2,2.32l-15,40.34a4.84,4.84,0,0,1-7.77,1.73L242.49,223a4.43,4.43,0,0,1-1.39-2.62C256.45,216.1,272.23,208.64,287.73,199.25Z"/></g><g id="Layer_6" data-name="Layer 6"><path class="cls-7" d="M328.29,149.47a64.44,64.44,0,0,0-17.82-12.89c-21.21-10.27-42.42-5.38-42.56-6.51-.12-.91,14.11-3.9,67.54-12"/><path class="cls-7" d="M317.86,91a64.35,64.35,0,0,1-12.26,18.26c-16.35,17-37.94,19.73-37.68,20.83.2.9,14.59-1.21,67.54-12.06"/><ellipse class="cls-8" cx="100.79" cy="155.66" rx="43.88" ry="34.99" transform="translate(-79.96 197.14) rotate(-70)"/></g></svg>