<svg id="Layer_1" data-name="Layer 1" xmlns="http://www.w3.org/2000/svg" viewBox="0 0 400 400"><defs><style>.cls-1{fill:#bcd24e;}.cls-2{fill:#1d1d1b;}.cls-3,.cls-4{fill:#fff;}.cls-3,.cls-4,.cls-5,.cls-6,.cls-7,.cls-8{stroke:#1d1d1b;stroke-miterlimit:10;}.cls-3{stroke-width:20px;}.cls-4,.cls-5,.cls-7,.cls-8{stroke-width:12.5px;}.cls-5{fill:#b1322a;}.cls-6{fill:#e96a6a;stroke-width:10px;}.cls-7{fill:none;}.cls-8{fill:#f0ebcc;}</style></defs><circle class="cls-1" cx="200" cy="200" r="187.5"/><path class="cls-2" d="M200,25A175,175,0,0,1,323.74,323.74,175,175,0,1,1,76.26,76.26,173.82,173.82,0,0,1,200,25m0-25C89.54,0,0,89.54,0,200S89.54,400,200,400s200-89.54,200-200S310.46,0,200,0Z"/><ellipse class="cls-3" cx="100.59" cy="155.63" rx="43.88" ry="34.99" transform="translate(-80.06 196.93) rotate(-70)"/><ellipse class="cls-4" cx="309.08" cy="134.83" rx="20.3" ry="24" transform="translate(-27.48 113.84) rotate(-20)"/><g id="Layer_3" data-name="Layer 3"><path class="cls-5" d="M349.17,185.32c-.19-10.62-12.59-16-21.83-10-49.42,31.83-149.39,75.44-210.15,58a1.76,1.76,0,0,1-.2-.09c-9.36-4.22-20,2.53-19.47,12.39,3,53.79,83,102.07,122.6,101.47C306.17,345.77,349.44,200.08,349.17,185.32Z"/><path class="cls-6" d="M240.91,281.08c21.53-3.22,41.94,6.52,51.82,23-19.58,23.94-44.41,42-74.46,42.45a70.79,70.79,0,0,1-16.7-2,42.94,42.94,0,0,1-3-10.2C194.38,309,213.35,285.21,240.91,281.08Z"/><path class="cls-7" d="M349.17,185.32c-.19-10.62-12.59-16-21.83-10-49.42,31.83-149.39,75.44-210.15,58a1.76,1.76,0,0,1-.2-.09c-9.36-4.22-20,2.53-19.47,12.39,3,53.79,83,102.07,122.6,101.47C306.17,345.77,349.44,200.08,349.17,185.32Z"/><path class="cls-8" d="M140.28,236.5a4.51,4.51,0,0,0,1.39,1.92l34.07,27.87a4.83,4.83,0,0,0,7.65-2.18l8.55-28.42a4.25,4.25,0,0,0-.16-2.93C176.21,236.29,158.62,237.3,140.28,236.5Z"/><path class="cls-8" d="M287.73,199.25a4.26,4.26,0,0,1-.2,2.32l-15,40.34a4.84,4.84,0,0,1-7.77,1.73L242.49,223a4.43,4.43,0,0,1-1.39-2.62C256.45,216.1,272.23,208.64,287.73,199.25Z"/></g></svg>